<svg width="32" height="33" viewBox="0 0 32 33" fill="none" xmlns="http://www.w3.org/2000/svg">
<path d="M4.63541 21.3037L4.63559 21.3041C5.28716 22.815 6.16685 24.1194 7.27377 25.2263C8.3807 26.3332 9.68505 27.2129 11.196 27.8645L11.1964 27.8647C12.688 28.5087 14.2858 28.8334 16 28.8334C17.7142 28.8334 19.312 28.5087 20.8036 27.8647L20.804 27.8645C22.315 27.2129 23.6193 26.3332 24.7262 25.2263C25.8332 24.1194 26.7128 22.815 27.3644 21.3041L27.3646 21.3037C28.0086 19.8121 28.3333 18.2143 28.3333 16.5001C28.3333 14.7859 28.0086 13.1881 27.3646 11.6965L27.3644 11.6961C26.7128 10.1851 25.8332 8.88078 24.7262 7.77386C23.6193 6.66694 22.315 5.78679 20.804 5.13434L4.63541 21.3037ZM4.63541 21.3037C3.99138 19.8121 3.66667 18.2143 3.66667 16.5001C3.66667 14.7859 3.99138 13.1881 4.63541 11.6965L4.63559 11.6961M4.63541 21.3037L4.63559 11.6961M4.63559 11.6961C5.28716 10.1851 6.16685 8.88078 7.27377 7.77386M4.63559 11.6961L7.27377 7.77386M7.27377 7.77386C8.38079 6.66684 9.68529 5.78663 11.1964 5.13416M7.27377 7.77386L11.1964 5.13416M11.1964 5.13416C12.688 4.49102 14.2858 4.16675 16 4.16675M11.1964 5.13416L16 4.16675M16 4.16675C17.7142 4.16675 19.312 4.49102 20.8036 5.13416L16 4.16675Z" stroke="#BEBEBE" stroke-width="2"/>
</svg>
