<svg width="32" height="33" viewBox="0 0 32 33" fill="none" xmlns="http://www.w3.org/2000/svg">
<path d="M4.63541 21.3037L4.63559 21.3041C5.28716 22.815 6.16685 24.1194 7.27377 25.2263C8.3807 26.3332 9.68505 27.2129 11.196 27.8645L11.1964 27.8647C12.688 28.5087 14.2858 28.8334 16 28.8334C17.7142 28.8334 19.312 28.5087 20.8036 27.8647L20.804 27.8645C22.315 27.2129 23.6193 26.3332 24.7262 25.2263C25.8332 24.1194 26.7128 22.815 27.3644 21.3041L27.3646 21.3037C28.0086 19.8121 28.3333 18.2143 28.3333 16.5001C28.3333 14.7859 28.0086 13.1881 27.3646 11.6965L27.3644 11.6961C26.7128 10.1851 25.8332 8.88078 24.7262 7.77386C23.6193 6.66694 22.315 5.78679 20.804 5.13434L4.63541 21.3037ZM4.63541 21.3037C3.99138 19.8121 3.66667 18.2143 3.66667 16.5001C3.66667 14.7859 3.99138 13.1881 4.63541 11.6965L4.63559 11.6961M4.63541 21.3037L4.63559 11.6961M4.63559 11.6961C5.28716 10.1851 6.16685 8.88078 7.27377 7.77386M4.63559 11.6961L7.27377 7.77386M7.27377 7.77386C8.38079 6.66684 9.68529 5.78663 11.1964 5.13416M7.27377 7.77386L11.1964 5.13416M11.1964 5.13416C12.688 4.49102 14.2858 4.16675 16 4.16675M11.1964 5.13416L16 4.16675M16 4.16675C17.7142 4.16675 19.312 4.49102 20.8036 5.13416L16 4.16675Z" stroke="#BEBEBE" stroke-width="2"/>
<path d="M16 24.5C14.8933 24.5 13.8533 24.2899 12.88 23.8696C11.9067 23.4499 11.06 22.88 10.34 22.16C9.62 21.44 9.05013 20.5933 8.6304 19.62C8.21013 18.6467 8 17.6067 8 16.5C8 15.3933 8.21013 14.3533 8.6304 13.38C9.05013 12.4067 9.62 11.56 10.34 10.84C11.06 10.12 11.9067 9.54987 12.88 9.1296C13.8533 8.70987 14.8933 8.5 16 8.5C17.1067 8.5 18.1467 8.70987 19.12 9.1296C20.0933 9.54987 20.94 10.12 21.66 10.84C22.38 11.56 22.9499 12.4067 23.3696 13.38C23.7899 14.3533 24 15.3933 24 16.5C24 17.6067 23.7899 18.6467 23.3696 19.62C22.9499 20.5933 22.38 21.44 21.66 22.16C20.94 22.88 20.0933 23.4499 19.12 23.8696C18.1467 24.2899 17.1067 24.5 16 24.5Z" fill="#BEBEBE"/>
</svg>
